<?xml version="1.0" standalone="no"?>
<!DOCTYPE svg PUBLIC "-//W3C//DTD SVG 20010904//EN"
 "http://www.w3.org/TR/2001/REC-SVG-20010904/DTD/svg10.dtd">
<svg version="1.0" xmlns="http://www.w3.org/2000/svg"
 width="1080.000000pt" height="1080.000000pt" viewBox="0 0 1080.000000 1080.000000"
 preserveAspectRatio="xMidYMid meet">
<metadata>
Created by potrace 1.11, written by Peter Selinger 2001-2013
</metadata>
<g transform="translate(0.000000,1080.000000) scale(0.100000,-0.100000)"
fill="#000000" stroke="none">
<path d="M748 7742 c-13 -3 -15 -258 -16 -2300 -1 -1263 1 -2319 4 -2347 l5
-50 94 0 c57 0 95 4 95 10 0 7 3 7 8 0 4 -6 95 -10 237 -10 142 0 233 4 237
10 5 7 8 7 8 0 0 -6 85 -10 235 -10 150 0 235 4 235 10 0 7 3 7 8 0 4 -6 95
-10 237 -10 142 0 233 4 237 10 5 7 8 7 8 0 0 -6 85 -10 235 -10 150 0 235 4
235 10 0 7 3 7 8 0 4 -6 95 -10 237 -10 142 0 233 4 237 10 5 7 8 7 8 0 0 -6
85 -10 235 -10 150 0 235 4 235 10 0 7 3 7 8 0 4 -6 95 -10 237 -10 142 0 233
4 237 10 5 7 8 7 8 0 0 -6 45 -10 115 -10 70 0 115 4 115 10 0 7 3 7 8 0 4 -6
55 -10 117 -10 62 0 113 4 117 10 5 7 8 7 8 0 0 -6 75 -9 212 -7 117 2 300 4
405 5 106 1 193 5 193 8 0 7 56 3 69 -6 6 -3 11 -3 11 2 0 4 14 8 30 9 17 1
30 -3 30 -7 0 -5 10 -5 22 0 12 4 36 5 53 1 17 -4 39 -4 50 0 11 4 26 3 33 -2
7 -7 12 -7 12 -1 0 9 79 7 88 -2 2 -2 15 0 28 5 16 6 24 6 24 -1 0 -6 6 -7 13
-2 15 9 33 10 72 2 17 -3 39 -3 50 1 11 4 28 3 38 -2 9 -5 17 -5 17 0 0 9 53
8 69 -3 6 -3 11 -3 11 2 0 4 14 8 30 9 17 1 30 -3 30 -7 0 -5 10 -5 22 0 12 4
36 5 53 1 17 -4 39 -4 50 0 11 4 28 3 38 -2 9 -5 17 -5 17 0 0 9 53 8 69 -3 6
-3 11 -3 11 2 0 4 14 8 30 9 17 1 30 -3 30 -7 0 -5 10 -5 22 0 12 4 36 5 53 1
17 -4 39 -4 50 0 11 4 28 3 38 -2 9 -5 17 -5 17 0 0 9 53 8 69 -3 6 -3 11 -3
11 2 0 4 14 8 30 9 17 1 30 -3 30 -7 0 -5 10 -5 22 0 12 4 36 5 53 1 17 -4 39
-4 50 0 11 4 28 3 38 -2 9 -5 17 -5 17 0 0 9 53 8 69 -3 6 -3 11 -3 11 2 0 4
14 8 30 9 17 1 30 -3 30 -7 0 -5 10 -5 22 0 12 4 36 5 53 1 17 -4 39 -4 50 0
11 4 28 3 38 -2 9 -5 17 -5 17 0 0 9 53 8 69 -3 6 -3 11 -3 11 2 0 4 14 8 30
9 17 1 30 -2 30 -5 0 -4 29 -4 65 -1 36 3 65 2 65 -2 0 -3 12 -3 28 1 15 5 37
4 50 0 12 -5 22 -5 22 -1 0 4 32 7 70 7 39 0 70 -3 70 -7 0 -4 12 -3 28 1 15
5 37 4 50 0 12 -5 22 -5 22 -1 0 4 32 7 70 7 39 0 70 -3 70 -7 0 -4 12 -3 28
1 15 5 37 4 50 0 12 -5 22 -5 22 -1 0 4 32 7 70 7 39 0 70 -3 70 -7 0 -4 12
-3 28 1 15 5 37 4 50 0 12 -5 22 -5 22 -1 0 4 32 7 70 7 39 0 70 -3 70 -7 0
-4 12 -3 28 1 15 5 37 4 50 0 12 -5 22 -5 22 -1 0 4 32 7 70 7 39 0 70 -3 70
-7 0 -4 12 -3 28 1 15 5 37 4 50 0 12 -5 22 -5 22 -1 0 4 32 7 70 7 39 0 70
-3 70 -7 0 -4 12 -3 28 1 15 5 37 4 50 0 12 -5 22 -5 22 -1 0 4 32 7 70 7 39
0 70 -3 70 -7 0 -4 12 -3 28 1 15 5 37 4 50 0 12 -5 22 -5 22 -1 0 8 134 7
149 -2 5 -3 11 0 13 6 3 9 33 13 99 14 l94 0 3 2115 c1 1163 3 2207 5 2322 2
179 0 207 -13 208 -8 1 -661 2 -1450 3 -1271 1 -1437 -1 -1450 -14 -9 -9 -60
-126 -114 -260 -54 -135 -105 -258 -112 -275 -7 -16 -63 -154 -124 -305 -62
-151 -150 -369 -197 -485 -74 -181 -116 -286 -154 -382 -14 -37 -38 -17 -76
64 -46 97 -117 169 -206 212 -198 94 -436 9 -536 -190 -16 -32 -31 -56 -33
-53 -16 16 -111 22 -157 10 l-51 -13 -32 59 c-73 136 -193 215 -344 224 -143
8 -281 -63 -362 -187 -23 -35 -42 -71 -42 -81 0 -9 -13 -30 -29 -46 -16 -16
-31 -39 -33 -53 -2 -17 -14 5 -42 76 -21 55 -47 118 -57 140 -9 22 -47 114
-84 205 -37 91 -171 419 -297 730 -127 311 -235 580 -240 598 -5 17 -14 33
-21 33 -7 1 -527 3 -1157 5 -630 2 -1280 5 -1446 6 -165 2 -307 2 -316 0z
m3083 -1542 c258 -619 487 -1168 508 -1220 22 -52 105 -252 186 -445 81 -192
155 -370 165 -395 20 -50 165 -401 183 -440 6 -14 12 -28 13 -31 2 -3 -788 -5
-1755 -5 l-1758 0 0 1833 1 1833 994 -2 994 -3 469 -1125z m3959 1117 c0 -5 6
-5 13 0 17 11 66 12 73 1 3 -4 11 -5 17 -1 17 10 137 11 137 0 0 -4 6 -5 13 0
17 11 66 12 73 1 3 -4 11 -5 17 -1 17 10 297 10 297 0 0 -4 6 -5 13 0 17 11
66 12 73 1 3 -4 11 -5 17 -1 17 10 137 11 137 0 0 -4 6 -5 13 0 17 11 66 12
73 1 3 -4 11 -5 17 -1 16 10 217 10 224 1 2 -5 10 -5 16 -1 17 10 137 11 137
0 0 -4 6 -5 13 0 20 13 109 10 114 -4 3 -7 6 -827 6 -1823 2 -1602 0 -1810
-13 -1811 -8 -1 -26 -1 -40 0 -28 2 -24 2 -110 1 -36 0 -74 0 -85 0 -11 0 -45
0 -75 0 -30 1 -59 1 -65 1 -5 0 -31 -2 -57 -4 -27 -2 -48 1 -48 5 0 5 -5 6
-12 2 -6 -4 -34 -6 -62 -5 -28 1 -57 2 -63 1 -7 0 -31 0 -53 0 -22 0 -48 0
-57 0 -28 0 -117 1 -128 1 -5 0 -31 -2 -57 -4 -27 -2 -48 1 -48 5 0 5 -5 6
-12 2 -6 -4 -34 -6 -62 -5 -28 1 -57 2 -63 1 -7 0 -31 0 -53 0 -22 0 -48 0
-57 0 -10 0 -40 0 -68 0 -27 1 -54 1 -60 1 -5 0 -41 -2 -78 -3 -38 -2 -70 -1
-73 1 -7 7 -44 8 -44 2 0 -3 -33 -5 -72 -3 -40 1 -80 2 -88 2 -16 0 -109 0
-125 1 -5 0 -31 -2 -57 -4 -27 -2 -48 1 -48 5 0 5 -5 6 -12 2 -6 -4 -34 -6
-62 -5 -28 1 -57 2 -63 1 -11 0 -46 0 -108 0 -23 0 -143 0 -162 0 -26 0 -116
1 -128 1 -5 0 -31 -2 -57 -4 -27 -2 -48 1 -48 5 0 5 -5 6 -12 2 -6 -4 -34 -6
-62 -5 -59 2 -50 2 -144 -1 -39 -2 -72 0 -72 4 0 4 -8 4 -17 1 -10 -4 -33 -6
-53 -5 -19 1 -42 2 -50 2 -17 0 -109 1 -125 1 -5 0 -31 -2 -57 -4 -27 -2 -48
1 -48 5 0 5 -5 6 -12 2 -6 -4 -34 -6 -62 -5 -62 2 -59 2 -123 -1 -29 -2 -53 0
-53 5 0 4 -5 5 -11 2 -5 -4 -3 10 6 32 9 21 37 88 61 148 25 61 51 124 59 140
7 17 63 152 125 300 61 149 115 279 120 290 26 60 55 127 120 285 39 96 77
189 85 205 7 17 52 125 100 240 48 116 94 228 104 250 10 22 177 423 371 890
195 468 357 852 361 855 12 9 469 5 469 -3z m-2787 -1091 c282 -138 275 -552
-11 -684 -46 -21 -72 -26 -137 -26 -69 0 -89 4 -146 31 -301 141 -280 583 34
695 76 27 186 20 260 -16z m999 2 c76 -36 143 -104 181 -186 26 -58 30 -78 30
-152 -1 -98 -22 -166 -74 -234 -164 -214 -480 -181 -603 62 -30 59 -44 158
-34 230 14 93 70 184 153 248 90 68 240 82 347 32z m-599 -288 c23 -18 30 -35
41 -95 2 -11 7 -38 10 -59 19 -104 122 -239 220 -285 135 -66 286 -57 405 23
l48 33 -124 -306 c-169 -416 -376 -927 -518 -1278 -119 -293 -140 -330 -164
-285 -7 13 -228 554 -383 937 -11 28 -26 64 -33 80 -7 17 -47 113 -88 215 -42
102 -113 275 -158 385 -44 110 -90 222 -101 249 l-19 49 37 -36 c129 -125 340
-146 492 -48 106 69 171 170 198 309 8 40 18 82 24 92 23 43 73 51 113 20z"/>
<path d="M2920 6465 c0 -5 -24 -10 -53 -11 -71 -1 -207 -16 -262 -28 -16 -3
-41 -9 -55 -12 -39 -8 -55 -12 -55 -14 0 -1 -8 -3 -17 -6 -148 -35 -277 -115
-348 -214 -50 -69 -59 -97 -60 -200 -1 -86 0 -89 45 -190 2 -3 6 -15 10 -27 4
-13 11 -20 16 -17 5 3 9 -1 9 -8 0 -7 13 -29 28 -48 36 -47 178 -188 226 -225
21 -17 50 -40 65 -52 14 -13 32 -23 39 -23 7 0 10 -4 7 -10 -3 -5 -1 -10 4
-10 10 0 47 -29 87 -67 7 -7 15 -13 19 -13 15 0 164 -162 180 -197 39 -80 26
-151 -37 -213 -51 -51 -164 -109 -243 -126 -11 -2 -45 -9 -75 -16 -30 -6 -63
-13 -72 -14 -10 -1 -19 -3 -20 -4 -6 -4 -96 -12 -165 -13 -40 -1 -73 -6 -73
-10 0 -5 -5 -5 -11 -1 -6 3 -30 8 -53 10 -40 4 -81 11 -81 14 0 1 -14 3 -30 5
-17 2 -45 5 -63 8 -17 3 -34 1 -38 -4 -3 -5 -9 -7 -14 -4 -16 10 -38 -6 -43
-30 -5 -27 19 -69 34 -60 5 4 9 2 9 -3 0 -9 7 -11 58 -15 17 -1 32 -4 32 -7 0
-3 19 -4 42 -3 24 0 51 -3 62 -9 14 -8 17 -7 11 3 -6 8 -4 10 5 4 17 -10 99
-13 128 -3 15 5 22 4 22 -5 0 -7 3 -8 8 -2 4 6 35 10 69 10 35 0 63 3 63 6 0
3 15 6 33 6 36 0 94 10 146 23 19 5 38 7 43 4 4 -3 8 -1 8 4 0 5 6 9 13 10 26
2 79 18 122 37 17 7 49 21 73 31 23 10 42 21 42 26 0 4 7 8 16 8 20 0 144 125
144 145 0 8 5 15 12 15 6 0 8 3 5 6 -3 4 -1 16 5 27 12 23 20 165 10 182 -4 5
-8 18 -9 28 -4 25 -65 137 -75 137 -4 0 -8 4 -8 10 0 19 -141 167 -220 230
-24 19 -60 49 -79 65 -20 17 -49 41 -65 55 -112 95 -219 226 -230 280 -1 3 -4
10 -7 15 -13 23 -1 114 20 156 24 44 102 129 121 129 5 0 10 5 10 10 0 6 7 10
15 10 8 0 15 4 15 8 0 5 16 14 35 22 19 8 35 17 35 22 0 4 3 7 8 6 4 -1 32 6
62 17 30 10 60 20 65 21 111 22 252 25 299 6 49 -19 43 -60 -18 -121 -87 -87
-105 -109 -99 -115 4 -3 1 -6 -5 -6 -16 0 -8 -58 10 -76 13 -14 49 -19 78 -12
46 12 90 31 90 39 0 5 6 9 14 9 8 0 21 6 28 13 7 7 28 23 45 35 62 44 106 150
89 216 -17 67 -102 107 -236 110 -30 1 -58 6 -62 11 -5 7 -8 7 -8 0z"/>
<path d="M8108 6655 c-2 -1 -34 -5 -73 -9 -215 -19 -440 -119 -575 -257 -70
-70 -90 -96 -83 -103 4 -3 1 -6 -5 -6 -7 0 -12 -7 -12 -15 0 -8 -5 -15 -12
-15 -6 0 -9 -3 -6 -6 4 -3 0 -21 -8 -40 -8 -19 -12 -39 -9 -44 4 -6 2 -10 -3
-10 -6 0 -8 -17 -5 -37 2 -21 5 -44 5 -50 1 -7 5 -13 10 -13 5 0 7 -4 4 -8
-11 -18 50 -62 96 -70 l46 -9 -7 26 c-6 22 -7 146 -1 146 1 0 4 15 7 34 2 18
9 45 15 60 6 14 12 29 12 32 3 22 97 141 139 177 231 192 639 194 815 3 17
-19 32 -39 32 -44 0 -4 4 -6 9 -3 5 3 12 -5 15 -19 4 -14 11 -25 17 -25 6 0 7
-4 4 -10 -3 -5 -2 -10 2 -10 8 0 47 -95 43 -102 -1 -2 3 -15 9 -31 16 -41 23
-77 24 -124 0 -24 4 -43 9 -43 5 0 5 -7 0 -17 -5 -9 -6 -28 -2 -42 4 -14 6
-39 4 -56 -5 -64 -15 -151 -20 -175 -3 -14 -7 -37 -9 -52 -2 -15 -9 -46 -15
-70 -7 -24 -13 -50 -15 -58 -6 -26 -35 -109 -57 -158 -12 -26 -22 -53 -24 -60
-7 -35 -149 -275 -188 -319 -6 -6 -22 -26 -36 -44 -43 -56 -152 -164 -220
-216 -145 -112 -314 -180 -469 -188 -106 -5 -147 4 -143 31 5 40 26 132 46
199 1 6 6 28 11 50 4 22 10 45 14 50 3 6 6 15 7 20 7 39 22 100 24 100 1 0 3
7 5 15 2 8 11 40 20 70 10 30 17 63 18 73 1 9 5 17 9 17 4 0 5 7 2 15 -4 8 -2
15 3 15 8 0 12 15 15 58 1 6 6 12 11 12 6 0 8 3 4 6 -3 3 -1 18 5 33 5 14 11
33 13 41 6 32 38 126 46 136 5 6 7 13 4 16 -3 3 2 21 10 41 8 20 15 38 14 39
0 2 5 16 11 32 6 16 12 36 14 45 2 9 9 30 15 46 7 17 15 39 17 50 2 11 8 29
13 40 24 54 31 77 26 86 -4 5 -1 9 5 9 6 0 8 5 5 10 -3 6 -2 10 3 10 5 0 9 6
10 13 1 25 12 61 19 66 8 6 15 27 16 49 0 6 4 12 9 12 4 0 8 5 8 12 0 15 46
135 66 171 8 15 13 27 9 27 -3 0 2 11 11 25 9 14 14 25 11 25 -3 0 1 12 8 27
13 26 13 28 -8 40 -41 23 -89 16 -128 -19 -44 -41 -80 -90 -103 -143 -9 -22
-22 -48 -27 -59 -6 -10 -13 -30 -15 -44 -3 -14 -8 -30 -12 -36 -7 -11 -12 -32
-14 -53 -1 -7 -5 -13 -10 -13 -4 0 -8 -6 -8 -14 0 -8 -5 -27 -12 -43 -6 -15
-10 -34 -9 -40 1 -7 -3 -13 -9 -13 -5 0 -10 -7 -10 -17 0 -13 -67 -229 -87
-283 -4 -8 -7 -18 -8 -22 -2 -5 -3 -9 -5 -10 -1 -2 -3 -10 -5 -18 -2 -8 -15
-53 -30 -100 -15 -47 -28 -92 -30 -100 -2 -8 -4 -15 -5 -15 -1 0 -3 -8 -6 -17
-6 -28 -11 -42 -17 -58 -6 -15 -56 -191 -62 -220 -2 -8 -13 -46 -25 -85 -11
-38 -23 -81 -26 -95 -9 -48 -11 -55 -18 -70 -3 -8 -8 -28 -10 -45 -2 -16 -6
-37 -9 -45 -4 -8 -9 -26 -11 -40 -3 -14 -7 -34 -10 -46 -3 -13 6 -32 25 -52
63 -68 151 -92 306 -86 58 2 108 6 112 9 4 2 21 7 38 9 54 10 164 47 237 80
65 30 204 111 216 126 3 4 12 11 22 16 28 16 118 96 182 163 34 35 71 74 84
87 12 13 22 27 22 33 0 5 3 11 8 13 9 4 72 85 72 93 0 4 10 21 22 38 13 18 23
34 23 37 1 3 18 38 38 77 21 40 36 74 35 75 -1 2 5 14 12 28 8 14 15 27 15 30
0 3 9 30 20 60 11 30 20 58 21 63 1 4 3 9 4 12 1 3 3 13 5 23 1 9 5 28 8 42 4
14 9 36 11 50 3 14 5 25 6 25 5 0 22 199 20 235 -1 14 -2 48 -3 75 -1 28 -6
53 -12 57 -6 5 -5 8 2 8 9 0 10 7 4 23 -5 12 -9 24 -9 27 0 3 -3 16 -6 30 -3
14 -8 34 -10 45 -7 46 -53 149 -89 204 -92 136 -225 217 -410 246 -40 7 -174
14 -179 10z"/>
<path d="M4764 6109 c-199 -76 -241 -337 -73 -459 200 -144 470 31 415 270
-35 150 -202 242 -342 189z"/>
<path d="M5800 6116 c-92 -24 -160 -88 -190 -180 -53 -164 73 -337 247 -338
95 -1 177 43 228 122 76 119 36 288 -84 365 -35 21 -54 27 -131 39 -14 2 -45
-2 -70 -8z"/>
<path d="M1313 2785 c-111 -34 -111 -34 -90 -46 13 -8 34 -4 80 15 34 13 63
23 65 21 2 -2 -12 -41 -31 -87 -73 -172 -207 -564 -207 -605 0 -23 32 -47 52
-41 6 2 34 84 62 182 l51 179 58 3 c61 4 154 27 197 49 34 18 86 65 99 93 15
28 16 99 3 134 -39 98 -197 146 -339 103z m223 -28 c58 -30 84 -130 51 -194
-37 -70 -134 -129 -233 -139 -52 -6 -56 -5 -50 12 3 11 16 55 30 99 24 79 31
100 67 182 11 24 19 47 19 52 0 24 60 17 116 -12z"/>
<path d="M3636 2798 c-59 -8 -120 -38 -124 -60 -3 -13 2 -16 20 -13 13 3 71 8
131 11 l107 6 -21 -54 c-188 -461 -229 -601 -184 -634 32 -23 49 -13 53 31 2
31 31 157 57 245 2 8 10 35 16 59 7 23 35 111 64 195 l52 151 84 6 c83 6 139
21 139 36 0 5 -10 8 -22 9 -13 0 -68 4 -123 8 -137 11 -194 12 -249 4z"/>
<path d="M6005 2798 c-33 -4 -80 -15 -105 -25 -25 -9 -49 -16 -55 -14 -5 1 -2
-6 7 -15 17 -17 20 -17 65 4 47 22 93 35 93 26 0 -2 -22 -57 -49 -122 -57
-134 -124 -321 -172 -470 l-32 -103 21 -21 c11 -11 27 -18 34 -15 8 3 32 71
58 166 25 89 47 161 50 161 3 0 24 -37 47 -83 110 -214 208 -317 251 -264 9
10 -4 28 -53 77 -61 60 -128 149 -174 233 -12 21 -29 49 -37 63 -16 23 -15 24
7 25 73 2 174 27 231 56 94 46 131 159 78 233 -27 38 -95 78 -145 85 -22 3
-44 7 -50 9 -5 1 -37 -1 -70 -6z m155 -33 c51 -26 75 -72 71 -134 -6 -94 -92
-161 -243 -190 -34 -6 -48 -5 -48 3 0 19 38 133 80 240 l41 104 37 -5 c20 -3
48 -11 62 -18z"/>
<path d="M7630 2802 c-59 -7 -170 -46 -170 -58 0 -19 24 -18 62 2 50 26 88 35
88 20 0 -6 -5 -17 -10 -22 -6 -6 -12 -19 -15 -30 -2 -10 -22 -64 -45 -119 -53
-131 -170 -482 -170 -512 0 -26 44 -54 59 -37 5 5 30 88 57 185 l48 175 31 -1
c16 -1 60 4 97 11 128 24 207 75 230 147 29 91 -2 161 -91 207 -42 21 -130 37
-171 32z m130 -38 c124 -50 102 -229 -35 -300 -57 -30 -185 -57 -185 -39 0 14
83 255 106 305 29 65 34 66 114 34z"/>
<path d="M9039 2800 c-67 -19 -122 -70 -141 -133 -10 -32 -9 -44 3 -66 8 -14
22 -27 31 -29 12 -2 16 9 20 55 5 68 23 109 60 136 38 28 74 17 86 -27 11 -37
5 -76 -28 -207 -30 -118 -34 -173 -14 -214 44 -94 206 -47 270 78 8 15 16 27
18 27 2 0 -3 -33 -11 -72 -8 -40 -17 -86 -19 -103 -9 -50 -44 -148 -67 -185
-42 -68 -76 -91 -137 -92 -52 -1 -73 22 -80 86 l-5 51 -22 -25 c-13 -13 -23
-35 -23 -48 0 -30 51 -82 82 -83 13 -1 38 -2 57 -3 46 -3 121 34 152 75 44 58
93 181 114 287 8 43 77 294 90 333 9 24 27 63 41 88 24 43 24 46 8 58 -49 36
-78 -2 -125 -162 -32 -113 -76 -212 -110 -248 -10 -11 -19 -24 -19 -27 0 -4
-19 -18 -43 -30 -30 -16 -52 -21 -70 -16 -58 14 -63 86 -18 262 17 65 31 131
31 146 0 55 -73 104 -131 88z"/>
<path d="M2020 2779 c-94 -57 -146 -167 -96 -201 20 -14 38 -9 32 9 -11 28 24
120 60 157 31 32 65 41 70 20 2 -5 -18 -72 -45 -149 -45 -134 -49 -140 -86
-160 -42 -22 -47 -41 -10 -38 30 3 31 -7 5 -83 -19 -54 -60 -201 -74 -266 -4
-17 -2 -28 4 -28 32 0 58 61 149 360 7 24 10 25 121 28 106 3 112 2 106 -15
-22 -56 -66 -251 -66 -293 0 -50 17 -80 46 -80 10 0 14 14 14 55 0 30 0 56 0
58 1 1 5 20 10 42 5 22 12 60 16 85 3 25 8 48 10 51 2 4 6 24 10 45 7 45 12
53 42 59 27 5 42 14 42 24 0 5 -11 6 -24 4 -13 -3 -26 0 -30 5 -3 6 14 81 39
167 51 177 48 165 36 165 -15 0 -52 -86 -91 -210 l-37 -115 -106 0 c-88 0
-107 3 -107 15 0 8 14 58 31 110 17 52 33 109 36 125 3 17 7 32 9 34 2 2 -1
12 -7 22 -13 26 -65 25 -109 -2z"/>
<path d="M2967 2786 c-152 -55 -302 -289 -312 -489 -11 -217 138 -321 310
-215 143 88 233 272 233 480 0 130 -34 202 -92 191 -54 -11 -156 -126 -156
-177 0 -15 26 -46 39 -46 3 0 12 19 19 43 17 55 82 151 106 155 68 13 66 -226
-4 -411 -73 -193 -226 -299 -319 -221 -116 97 -40 439 134 609 47 46 68 59
117 76 l53 18 -45 0 c-25 0 -62 -6 -83 -13z"/>
<path d="M4412 2772 c-169 -87 -304 -338 -287 -531 7 -74 30 -124 76 -166 31
-27 40 -30 104 -30 58 0 78 5 115 27 96 58 174 155 210 262 27 83 30 97 37
197 10 157 -28 241 -100 217 -58 -19 -147 -121 -147 -167 0 -20 25 -51 41 -51
5 0 9 6 9 14 0 22 37 99 70 144 121 167 129 -201 10 -438 -77 -152 -209 -222
-289 -154 -159 134 39 638 274 695 26 6 23 7 -20 8 -36 0 -65 -7 -103 -27z"/>
<path d="M5275 2781 c-107 -50 -210 -172 -265 -317 -63 -166 -43 -332 47 -394
56 -38 134 -37 191 2 24 16 46 36 48 43 11 27 30 24 28 -5 -2 -30 2 -38 28
-58 16 -12 17 -9 17 45 0 69 2 78 36 189 15 47 25 87 23 88 -14 8 -110 36
-138 40 -35 5 -80 -14 -80 -34 0 -6 24 -10 53 -10 28 0 63 -3 76 -7 21 -5 23
-10 17 -52 -7 -49 -53 -153 -83 -186 -69 -78 -156 -72 -202 14 -27 50 -32 156
-10 233 7 23 14 49 15 56 6 30 77 169 110 215 71 99 154 149 205 123 36 -18
32 -83 -10 -142 -32 -47 -33 -64 -2 -64 43 0 85 89 75 156 -12 80 -88 107
-179 65z"/>
<path d="M6985 2763 c-46 -44 -141 -164 -197 -247 -57 -84 -55 -83 -126 -82
-51 0 -66 -4 -84 -22 l-22 -22 67 0 c37 0 67 -4 67 -9 0 -5 -20 -43 -44 -85
-87 -146 -108 -212 -78 -242 15 -15 18 -12 47 52 16 38 53 114 81 169 56 109
47 104 144 92 25 -3 46 -6 48 -6 2 -1 0 -16 -3 -33 -36 -196 32 -292 139 -197
37 32 89 115 83 133 -2 6 -12 -4 -21 -22 -29 -56 -85 -111 -108 -107 -11 3
-23 7 -27 10 -9 9 -8 126 2 175 35 177 88 364 123 431 13 26 12 29 -5 39 -32
16 -46 12 -86 -27z m9 -60 c-14 -33 -61 -178 -90 -278 l-9 -31 -61 14 -62 13
46 77 c72 121 166 242 188 242 2 0 -3 -17 -12 -37z"/>
<path d="M8257 2769 c-80 -53 -127 -147 -91 -183 26 -26 40 -19 41 23 3 79 75
181 117 165 19 -7 19 -6 -37 -174 -39 -115 -45 -126 -76 -141 -18 -8 -37 -23
-42 -31 -8 -14 -4 -15 21 -12 34 6 38 -5 19 -53 -38 -98 -90 -311 -78 -318 26
-17 73 96 145 345 3 14 12 28 18 32 6 4 58 8 115 8 83 0 102 -3 98 -14 -13
-34 -47 -156 -57 -210 -17 -82 -15 -124 6 -147 30 -33 44 -24 44 31 0 28 1 53
2 58 1 4 9 50 19 102 33 176 33 175 71 186 42 12 47 31 7 28 -37 -3 -41 -26
41 255 12 40 19 75 17 77 -13 13 -46 -54 -88 -178 l-47 -143 -107 0 -107 0 5
25 c3 14 20 77 40 140 39 132 38 153 -14 158 -25 2 -47 -6 -82 -29z"/>
</g>
</svg>
